# xmcd
#
# Track frame offsets:
#  150
#  11528
#  20043
#  30694
#  38874
#  47756
#  55997
#  64739
#  74314
#  83789
#  94334
#  103255
#  114633
#  123148
#  133799
#  141979
#  150861
#  159102
#  167844
#  177419
#  186894
#  197439
#  206360
#  217738
#  226253
#  236904
#  245084
#  253966
#  262207
#  270949
#  280524
#  289999
#  300544
#  309465
#  320843
#  329358
#  340009
#  348189
#
# Disc length: 4758 seconds
#
# Revision: 0
# Processed by: cddbd v1.5.2PL0 Copyright (c) Steve Scherf et al.
# Submitted via: Collectorz.com_Music_Collector 6.11
#
DISCID=2e129426
DTITLE=Roger Miller - All Time Greatest Hits
DYEAR=1900
DGENRE=Country
TTITLE0=King of the Road
TTITLE1=Dang Me
TTITLE2=Engine Engine #9
TTITLE3=In the Summertime (You Don't W
TTITLE4=You Can't Roller Skate in a Bu
TTITLE5=(And You Had A) Do-Wacka-Do
TTITLE6=England Swings
TTITLE7=Chug-A-Lug
TTITLE8=One Dying and a Burying
TTITLE9=Kansas City Star
TTITLE10=Atta Boy Girl
TTITLE11=King of the Road
TTITLE12=Dang Me
TTITLE13=Engine Engine #9
TTITLE14=In the Summertime (You Don't W
TTITLE15=You Can't Roller Skate in a Bu
TTITLE16=(And You Had A) Do-Wacka-Do
TTITLE17=England Swings
TTITLE18=Chug-A-Lug
TTITLE19=One Dying and a Burying
TTITLE20=Kansas City Star
TTITLE21=Atta Boy Girl
TTITLE22=King of the Road
TTITLE23=Dang Me
TTITLE24=Engine Engine #9
TTITLE25=In the Summertime (You Don't W
TTITLE26=You Can't Roller Skate in a Bu
TTITLE27=(And You Had A) Do-Wacka-Do
TTITLE28=England Swings
TTITLE29=Chug-A-Lug
TTITLE30=One Dying and a Burying
TTITLE31=Kansas City Star
TTITLE32=Atta Boy Girl
TTITLE33=King of the Road
TTITLE34=Dang Me
TTITLE35=Engine Engine #9
TTITLE36=In the Summertime (You Don't W
TTITLE37=You Can't Roller Skate in a Bu
EXTD=
EXTT0=
EXTT1=
EXTT2=
EXTT3=
EXTT4=
EXTT5=
EXTT6=
EXTT7=
EXTT8=
EXTT9=
EXTT10=
EXTT11=
EXTT12=
EXTT13=
EXTT14=
EXTT15=
EXTT16=
EXTT17=
EXTT18=
EXTT19=
EXTT20=
EXTT21=
EXTT22=
EXTT23=
EXTT24=
EXTT25=
EXTT26=
EXTT27=
EXTT28=
EXTT29=
EXTT30=
EXTT31=
EXTT32=
EXTT33=
EXTT34=
EXTT35=
EXTT36=
EXTT37=
PLAYORDER=
